HIERARCHY
ROOT Hips
{
	OFFSET 0.000000 0.000000 0.000000
	CHANNELS 6 Xposition Yposition Zposition Zrotation Yrotation Xrotation 
	JOINT LeftUpLeg_virtual
	{
		OFFSET 0.000000 0.000000 0.000000
		CHANNELS 3 Zrotation Yrotation Xrotation
		JOINT LeftUpLeg
		{
			OFFSET 10.205400 -3.823500 0.155100
			CHANNELS 3 Zrotation Yrotation Xrotation
			JOINT LeftLeg
			{
				OFFSET 0.708757 -12.982077 0.567790
				CHANNELS 3 Zrotation Yrotation Xrotation
				JOINT LeftFoot
				{
					OFFSET -0.708756 -10.717838 -2.184338
					CHANNELS 3 Zrotation Yrotation Xrotation
					JOINT LeftToeBase
					{
						OFFSET 0.108149 -7.191104 7.560241
						CHANNELS 3 Zrotation Yrotation Xrotation
						End Site
						{
							OFFSET 0.000000 0.000000 0.000000
						}
					}
				}
			}
		}
	}
	JOINT RightUpLeg_virtual
	{
		OFFSET 0.000000 0.000000 0.000000
		CHANNELS 3 Zrotation Yrotation Xrotation
		JOINT RightUpLeg
		{
			OFFSET -10.205400 -3.823500 0.005500
			CHANNELS 3 Zrotation Yrotation Xrotation
			JOINT RightLeg
			{
				OFFSET -0.708756 -12.982134 0.610632
				CHANNELS 3 Zrotation Yrotation Xrotation
				JOINT RightFoot
				{
					OFFSET 0.708754 -10.717769 -1.945823
					CHANNELS 3 Zrotation Yrotation Xrotation
					JOINT RightToeBase
					{
						OFFSET -0.108140 -7.191069 7.372968
						CHANNELS 3 Zrotation Yrotation Xrotation
						End Site
						{
							OFFSET 0.000000 0.000000 0.000000
						}
					}
				}
			}
		}
	}
	JOINT Spine_virtual
	{
		OFFSET 0.000000 0.000000 0.000000
		CHANNELS 3 Zrotation Yrotation Xrotation
		JOINT Spine
		{
			OFFSET 0.000000 6.876099 0.125700
			CHANNELS 3 Zrotation Yrotation Xrotation
			JOINT Spine1
			{
				OFFSET 0.000000 8.022060 0.146608
				CHANNELS 3 Zrotation Yrotation Xrotation
				JOINT Spine2
				{
					OFFSET 0.000000 9.168068 0.167552
					CHANNELS 3 Zrotation Yrotation Xrotation
					JOINT Neck_virtual
					{
						OFFSET 0.000000 0.000000 0.000000
						CHANNELS 3 Zrotation Yrotation Xrotation
						JOINT Neck
						{
							OFFSET 0.000000 10.314075 0.188496
							CHANNELS 3 Zrotation Yrotation Xrotation
							JOINT Head
							{
								OFFSET 0.000000 7.643700 -2.377400
								CHANNELS 3 Zrotation Yrotation Xrotation
								End Site
								{
									OFFSET 0.000000 0.000000 0.000000
								}
							}
						}
					}
					JOINT LeftShoulder_virtual
					{
						OFFSET 0.000000 0.000000 0.000000
						CHANNELS 3 Zrotation Yrotation Xrotation
						JOINT LeftShoulder
						{
							OFFSET 4.392200 8.824978 0.174984
							CHANNELS 3 Zrotation Yrotation Xrotation
							JOINT LeftArm
							{
								OFFSET 8.771219 -2.981674 -0.026999
								CHANNELS 3 Zrotation Yrotation Xrotation
								JOINT LeftForeArm
								{
									OFFSET 8.512804 0.000000 -0.000000
									CHANNELS 3 Zrotation Yrotation Xrotation
									JOINT LeftHand
									{
										OFFSET 18.484802 0.000000 -0.000000
										CHANNELS 3 Zrotation Yrotation Xrotation
										End Site
										{
											OFFSET 0.000000 0.000000 0.000000
										}
									}
								}
							}
						}
					}
					JOINT RightShoulder_virtual
					{
						OFFSET 0.000000 0.000000 0.000000
						CHANNELS 3 Zrotation Yrotation Xrotation
						JOINT RightShoulder
						{
							OFFSET -4.392200 8.824993 0.141379
							CHANNELS 3 Zrotation Yrotation Xrotation
							JOINT RightArm
							{
								OFFSET -8.771282 -2.981682 -0.094208
								CHANNELS 3 Zrotation Yrotation Xrotation
								JOINT RightForeArm
								{
									OFFSET -8.494598 0.000000 0.000000
									CHANNELS 3 Zrotation Yrotation Xrotation
									JOINT RightHand
									{
										OFFSET -18.483803 0.000000 0.000001
										CHANNELS 3 Zrotation Yrotation Xrotation
										End Site
										{
											OFFSET 0.000000 0.000000 0.000000
										}
									}
								}
							}
						}
					}
				}
			}
		}
	}
}
MOTION
Frames: 7
Frame Time: 0.033333
4.796172 36.296738 7.773685 179.977848 -12.843554 179.678412 -0.528636 -2.462506 14.344663 -3.236935 -2.290660 -15.310791 4.524379 5.323639 12.260231 2.441814 -1.364696 12.135449 0.000000 0.000000 0.000000 4.775761 -2.779680 13.137272 -4.581322 14.614211 -16.617946 -7.377898 8.218500 15.467216 12.298053 3.555059 3.751720 0.000000 0.000000 0.000000 2.171523 -0.127096 4.015298 2.071542 0.569137 -12.170551 -0.332304 -2.814801 5.427053 0.022615 0.063660 -0.112995 -0.840292 -0.599789 7.502213 -1.935300 1.676954 15.734751 0.000000 0.000000 0.000000 0.765987 0.233235 4.530353 -14.615813 -5.336002 0.627671 -50.972981 16.989433 -0.039557 1.336034 -38.124525 2.026055 0.000000 0.000000 0.000000 -3.192111 1.164782 4.000410 25.360998 1.445664 3.857778 47.241031 -15.639134 9.806098 -3.159689 32.200872 -3.128932 0.000000 0.000000 0.000000 
4.800547 36.288879 7.757241 -179.984350 -12.829655 179.576684 -0.607329 -2.255731 14.210685 -3.476926 -1.692515 -15.462122 4.420221 5.959037 12.657581 2.925890 -0.965694 12.684354 0.000000 0.000000 0.000000 4.963534 -2.799470 13.020795 -5.031757 14.899465 -16.817106 -7.635899 8.809073 15.227791 12.712805 3.788876 3.626866 0.000000 0.000000 0.000000 2.139617 -0.095178 4.047089 2.157393 0.564624 -12.142330 -0.320661 -2.830974 5.396843 0.025421 0.055791 -0.074870 -0.881831 -0.570011 7.354060 -1.960865 1.662898 15.609453 0.000000 0.000000 0.000000 0.756401 0.192403 4.523368 -14.558835 -5.485823 0.603088 -50.851175 16.391824 0.158286 1.259410 -38.397872 2.060222 0.000000 0.000000 0.000000 -3.279910 1.098675 3.952111 25.343815 1.542955 3.859296 47.216633 -15.277065 9.830576 -3.155412 32.397319 -3.123458 0.000000 0.000000 0.000000 
4.802225 36.285019 7.736051 -179.983435 -12.832237 179.569157 -0.600676 -2.258126 14.197518 -3.480424 -1.682491 -15.436352 4.464481 5.915316 12.695167 2.893091 -0.997006 12.681344 0.000000 0.000000 0.000000 4.952371 -2.816532 13.037813 -4.995185 14.878840 -16.798804 -7.617094 8.776839 15.201790 12.683197 3.831943 3.659681 0.000000 0.000000 0.000000 2.128741 -0.139018 4.002671 2.155238 0.530952 -12.227034 -0.320757 -2.808629 5.315872 0.031405 0.061879 -0.085713 -0.900427 -0.544635 7.480477 -1.968053 1.678508 15.737381 0.000000 0.000000 0.000000 0.731070 0.244474 4.591704 -14.629567 -5.643023 0.599534 -50.556428 15.306703 0.415223 1.008773 -38.657491 2.240047 0.000000 0.000000 0.000000 -3.290005 1.178449 3.980684 25.322339 1.711185 3.930490 47.026535 -14.744046 10.146407 -3.168757 32.637164 -3.095664 0.000000 0.000000 0.000000 
4.799288 36.281708 7.713693 179.938943 -12.815359 179.594934 -0.699083 -2.262767 14.200766 -3.519996 -1.681304 -15.409646 4.585380 5.913062 12.732891 2.842573 -1.049131 12.650951 0.000000 0.000000 0.000000 4.821360 -2.834909 13.052366 -4.990803 14.896803 -16.779202 -7.548327 8.800113 15.149962 12.537335 3.829617 3.656811 0.000000 0.000000 0.000000 2.062658 -0.147141 3.895908 2.097692 0.486867 -12.278565 -0.357448 -2.768228 5.360084 0.013538 0.065229 -0.079693 -0.877780 -0.564944 7.503405 -1.986026 1.683003 15.789010 0.000000 0.000000 0.000000 0.775670 0.248585 4.505036 -14.718047 -5.794896 0.561022 -50.178046 14.246492 0.899220 0.977753 -39.079084 2.149886 0.000000 0.000000 0.000000 -3.239952 1.208558 3.970893 25.313699 1.959213 4.027173 46.750418 -14.151751 10.423985 -3.143821 32.831924 -3.055877 0.000000 0.000000 0.000000 
4.797568 36.280273 7.686247 179.902538 -12.792625 179.612720 -0.698567 -2.303152 14.176295 -3.560230 -1.673656 -15.336956 4.619958 5.867067 12.712856 2.840577 -1.037253 12.663569 0.000000 0.000000 0.000000 4.792480 -2.861617 13.047336 -4.931569 14.876569 -16.715300 -7.520523 8.838266 15.104171 12.468253 3.886638 3.647456 0.000000 0.000000 0.000000 2.052210 -0.163675 3.810916 2.058588 0.441885 -12.375265 -0.386440 -2.737117 5.416642 0.016044 0.063993 -0.096575 -0.909079 -0.500075 7.478522 -2.015912 1.695439 15.747377 0.000000 0.000000 0.000000 0.755660 0.280324 4.539890 -14.841953 -5.902063 0.506771 -49.844286 13.219362 1.165879 0.787064 -39.514803 2.210235 0.000000 0.000000 0.000000 -3.257119 1.230040 3.986720 25.286817 2.180430 4.129764 46.436223 -13.633688 10.500582 -3.036192 33.077623 -2.931826 0.000000 0.000000 0.000000 
4.795874 36.282967 7.658322 179.952576 -12.772111 179.597502 -0.699147 -2.322391 14.175549 -3.580214 -1.723829 -15.291183 4.821409 5.875437 12.831139 2.770878 -1.081554 12.619311 0.000000 0.000000 0.000000 4.800070 -2.911367 13.037642 -4.931012 14.937400 -16.613991 -7.502885 8.863577 15.048039 12.337145 3.905964 3.619867 0.000000 0.000000 0.000000 2.103800 -0.179726 3.769754 2.070828 0.412144 -12.474066 -0.391182 -2.675649 5.454535 0.010431 0.079779 -0.080320 -0.889298 -0.501346 7.535264 -1.977382 1.768669 15.807576 0.000000 0.000000 0.000000 0.728352 0.270770 4.581501 -14.917022 -5.960470 0.449485 -49.622035 12.383854 1.325332 0.614345 -40.036824 2.194156 0.000000 0.000000 0.000000 -3.279203 1.248325 4.012952 25.307352 2.409688 4.222095 46.071873 -13.205224 10.514351 -3.042017 33.298893 -2.943415 0.000000 0.000000 0.000000 
4.797292 36.285065 7.630227 -179.987274 -12.711271 179.571875 -0.631707 -2.365435 14.165235 -3.613518 -1.753151 -15.186883 4.860735 5.836844 12.820660 2.763106 -1.034611 12.631441 0.000000 0.000000 0.000000 4.864186 -2.949890 13.017082 -4.884224 14.945200 -16.485206 -7.537961 8.919661 14.978750 12.303736 3.962883 3.569887 0.000000 0.000000 0.000000 2.176738 -0.211861 3.729111 2.104435 0.308392 -12.537379 -0.398082 -2.583398 5.498250 0.014602 -0.001358 -0.099857 -0.934812 -0.413657 7.665003 -1.985481 1.825904 15.981297 0.000000 0.000000 0.000000 0.661476 0.360684 4.644879 -14.898917 -5.923301 0.276004 -49.492384 11.846590 1.385011 0.426798 -40.592873 2.242990 0.000000 0.000000 0.000000 -3.371749 1.315012 4.027964 25.350783 2.599120 4.299846 45.801705 -12.842618 10.256491 -3.014994 33.660870 -2.920538 0.000000 0.000000 0.000000 
